{"asset":{"version":"2.0","generator":"Space Explorer student project"},"scene":0,"scenes":[{"nodes":[0]}],"nodes":[{"name":"Explorer Satellite","children":[1,2,3,4]},{"mesh":0,"name":"Satellite body","scale":[0.55,0.38,0.55]},{"mesh":0,"name":"Left solar panel","translation":[-1.25,0,0],"scale":[0.75,0.055,0.46]},{"mesh":0,"name":"Right solar panel","translation":[1.25,0,0],"scale":[0.75,0.055,0.46]},{"mesh":0,"name":"Antenna","translation":[0,0.85,0],"scale":[0.08,0.48,0.08]}],"meshes":[{"primitives":[{"attributes":{"POSITION":0},"indices":1,"material":0}]}],"materials":[{"pbrMetallicRoughness":{"baseColorFactor":[0.25,0.78,1.0,1.0],"metallicFactor":0.85,"roughnessFactor":0.25},"emissiveFactor":[0.02,0.12,0.18]}],"buffers":[{"uri":"data:application/octet-stream;base64,","byteLength":168}],"bufferViews":[{"buffer":0,"byteOffset":0,"byteLength":96,"target":34962},{"buffer":0,"byteOffset":96,"byteLength":72,"target":34963}],"accessors":[{"bufferView":0,"componentType":5126,"count":8,"type":"VEC3","min":[-1,-1,-1],"max":[1,1,1]},{"bufferView":1,"componentType":5123,"count":36,"type":"SCALAR"}]}
